<svg width="32" height="32" viewBox="0 0 32 32" fill="none" xmlns="http://www.w3.org/2000/svg">
<g clip-path="url(#clip0_3006_62329)">
<path d="M8.7876 1.32498C9.63135 0.481226 10.7751 0.00622559 11.9688 0.00622559H20.0313C21.2251 0.00622559 22.3688 0.481226 23.2126 1.32498L30.6751 8.78748C31.5188 9.63123 31.9938 10.775 31.9938 11.9687V20.0312C31.9938 21.225 31.5188 22.3687 30.6751 23.2125L23.2126 30.675C22.3688 31.5187 21.2251 31.9937 20.0313 31.9937H11.9688C10.7751 31.9937 9.63135 31.5187 8.7876 30.675L1.3251 23.2125C0.481348 22.3687 0.00634766 21.225 0.00634766 20.0312V11.9687C0.00634766 10.775 0.481348 9.63123 1.3251 8.78748L8.7876 1.32498ZM10.9376 10.9375C10.3501 11.525 10.3501 12.475 10.9376 13.0562L13.8751 15.9937L10.9376 18.9312C10.3501 19.5187 10.3501 20.4687 10.9376 21.05C11.5251 21.6312 12.4751 21.6375 13.0563 21.05L15.9938 18.1125L18.9313 21.05C19.5188 21.6375 20.4688 21.6375 21.0501 21.05C21.6313 20.4625 21.6376 19.5125 21.0501 18.9312L18.1126 15.9937L21.0501 13.0562C21.6376 12.4687 21.6376 11.5187 21.0501 10.9375C20.4626 10.3562 19.5126 10.35 18.9313 10.9375L15.9938 13.875L13.0563 10.9375C12.4688 10.35 11.5188 10.35 10.9376 10.9375Z" fill="black"/>
</g>
<defs>
<clipPath id="clip0_3006_62329">
<rect width="32" height="32" fill="white"/>
</clipPath>
</defs>
</svg>
