<svg width="32" height="32" viewBox="0 0 32 32" fill="none" xmlns="http://www.w3.org/2000/svg">
<g clip-path="url(#clip0_1141_24612)">
<path d="M16 32C20.2435 32 24.3131 30.3143 27.3137 27.3137C30.3143 24.3131 32 20.2435 32 16C32 11.7565 30.3143 7.68687 27.3137 4.68629C24.3131 1.68571 20.2435 0 16 0C11.7565 0 7.68687 1.68571 4.68629 4.68629C1.68571 7.68687 0 11.7565 0 16C0 20.2435 1.68571 24.3131 4.68629 27.3137C7.68687 30.3143 11.7565 32 16 32ZM13.5 21H15V17H13.5C12.6687 17 12 16.3312 12 15.5C12 14.6687 12.6687 14 13.5 14H16.5C17.3312 14 18 14.6687 18 15.5V21H18.5C19.3312 21 20 21.6688 20 22.5C20 23.3312 19.3312 24 18.5 24H13.5C12.6687 24 12 23.3312 12 22.5C12 21.6688 12.6687 21 13.5 21ZM16 8C16.5304 8 17.0391 8.21071 17.4142 8.58579C17.7893 8.96086 18 9.46957 18 10C18 10.5304 17.7893 11.0391 17.4142 11.4142C17.0391 11.7893 16.5304 12 16 12C15.4696 12 14.9609 11.7893 14.5858 11.4142C14.2107 11.0391 14 10.5304 14 10C14 9.46957 14.2107 8.96086 14.5858 8.58579C14.9609 8.21071 15.4696 8 16 8Z" fill="black"/>
</g>
<defs>
<clipPath id="clip0_1141_24612">
<rect width="32" height="32" fill="white"/>
</clipPath>
</defs>
</svg>
